# xmcd
#
# Track frame offsets: 
#        150
#        26269
#        47700
#        70003
#        95300
#        115516
#        137617
#        162938
#        185705
#        216949
#        241282
#        255788
#        282517
#        301034
#
# Disc length: 4306 seconds
#
# Revision: 2
# Processed by: cddbd v1.5.2PL0 Copyright (c) Steve Scherf et al.
# Submitted via: ExactAudioCopy v0.99pb4
#
DISCID=b310d00e
DTITLE=The Cash Box Kings - Live At The King Club
DYEAR=2002
DGENRE=Blues
TTITLE0=Cash Box Boogie
TTITLE1=Chicago Bound
TTITLE2=Searchin' For You
TTITLE3=Tough Times
TTITLE4=Trouble In Mind
TTITLE5=Drop Down, Holler and Stomp
TTITLE6=Blue Cha Cha
TTITLE7=Big Road
TTITLE8=Louise
TTITLE9=Money Man
TTITLE10=Chicken Head Man
TTITLE11=Mean Red Spider
TTITLE12=Blues and Trouble
TTITLE13=Hoochie Coochie Man
EXTD=
EXTT0=
EXTT1=
EXTT2=
EXTT3=
EXTT4=
EXTT5=
EXTT6=
EXTT7=
EXTT8=
EXTT9=
EXTT10=
EXTT11=
EXTT12=
EXTT13=
PLAYORDER=
